<?xml version="1.0" encoding="UTF-8" standalone="no"?>
<svg
   xmlns:dc="http://purl.org/dc/elements/1.1/"
   xmlns:cc="http://creativecommons.org/ns#"
   xmlns:rdf="http://www.w3.org/1999/02/22-rdf-syntax-ns#"
   xmlns:svg="http://www.w3.org/2000/svg"
   xmlns="http://www.w3.org/2000/svg"
   xmlns:sodipodi="http://sodipodi.sourceforge.net/DTD/sodipodi-0.dtd"
   xmlns:inkscape="http://www.inkscape.org/namespaces/inkscape"
   viewBox="0 0 201 201"
   height="201"
   width="201"
   xml:space="preserve"
   id="svg2"
   version="1.1"
   inkscape:version="0.91 r13725"
   sodipodi:docname="logo_cartorioapp.svg"><sodipodi:namedview
     pagecolor="#ffffff"
     bordercolor="#666666"
     borderopacity="0"
     objecttolerance="10"
     gridtolerance="10"
     guidetolerance="10"
     inkscape:pageopacity="0"
     inkscape:pageshadow="2"
     inkscape:window-width="1278"
     inkscape:window-height="752"
     id="namedview24"
     showgrid="false"
     inkscape:zoom="1.6202091"
     inkscape:cx="207.99884"
     inkscape:cy="120.69975"
     inkscape:window-x="0"
     inkscape:window-y="0"
     inkscape:window-maximized="0"
     inkscape:current-layer="g12" /><metadata
     id="metadata8"><rdf:RDF><cc:Work
         rdf:about=""><dc:format>image/svg+xml</dc:format><dc:type
           rdf:resource="http://purl.org/dc/dcmitype/StillImage" /><dc:title></dc:title></cc:Work></rdf:RDF></metadata><defs
     id="defs6" /><g
     transform="matrix(1.3333333,0,0,-1.3333333,0,200.99999)"
     id="g10"><g
       transform="scale(0.1,0.1)"
       id="g12"><path
         id="path14"
         style="fill:#85a8ab;fill-opacity:1;fill-rule:evenodd;stroke:none"
         d="m 452.13355,865.44161 0,-186.99 50,33.47 0,226.02 -50,-72.5"
         inkscape:connector-curvature="0" /><path
         id="path16"
         style="fill:#6bc2e6;fill-opacity:1;fill-rule:evenodd;stroke:none"
         d="m 1211.1535,1518.4516 -888.01095,0 c -88.359,-2.35 -161.988,-32.85 -221.008,-91.53 -58.671001,-58.98 -89.14,-132.65 -91.492,-220.97 l 0,-888.01199 c 2.352,-88.668 32.820999,-162.5 91.492,-221.475996 59.02,-58.684 132.649,-89.184 221.008,-91.5319996 l 220.511,0 0,204.0319956 -209.999,216.988 0,465 129.489,180.96999 38.99,-26.99 0,214.03 c 4.02,37.96 26.17,58.82 66.52,62.5 l 396.99,0 c 40.67005,-3.68 63.01005,-24.54 66.99995,-62.5 l 0,-189.03 3.98,4.03 65.51,-65.51 -69.49,-69.48999 0,-49.54 26.99,27.5 66.01,-65.46 -93,-93.01 0,-36.53 59.49,59.54 65.51,-65.51 -125,-125 0,-45 49.49,49.49 65.51,-65.51 -156.48995,-328.011 0,-196.9889956 219.99995,0 c 88.63,2.3479996 162.5,32.8479996 221.49,91.5319996 58.67,58.975996 89.17,132.807996 91.48,221.475996 l 0,888.01199 c -2.31,88.32 -32.81,161.99 -91.48,220.97 -58.99,58.68 -132.86,89.18 -221.49,91.53"
         inkscape:connector-curvature="0" /><path
         id="path18"
         style="fill:#333333;fill-opacity:1;fill-rule:evenodd;stroke:none"
         d="m 979.12355,761.46161 0,-93.52 53.51995,53.98 0,36.02 -24.9999,-25 -28.52005,28.52"
         inkscape:connector-curvature="0" /><path
         id="path20"
         style="fill:#333333;fill-opacity:1;fill-rule:evenodd;stroke:none"
         d="m 979.12355,917.94161 0,-82.5 53.51995,53.98 0,49.54 -37.49995,-37.5 -16.02,16.48"
         inkscape:connector-curvature="0" /><path
         id="path22"
         style="fill:#333333;fill-opacity:1;fill-rule:evenodd;stroke:none"
         d="m 598.65355,514.42161 78.48,0 c 9.68,-0.66 14.84,-5.82 15.51,-15.46 -0.67,-9.34 -5.83,-14.54 -15.51,-15.51 l -78.48,0 c -9.69,0.97 -15,6.17 -16.01,15.51 1.01,9.64 6.32,14.8 16.01,15.46 m 135.47,31.53 66.52,0 c 8.01,-1.02 12.5,-5.51 13.48,-13.52 l 0,-66.48 c -0.98,-8.36 -5.47,-12.85 -13.48,-13.52 l -66.52,0 c -8.32,0.67 -12.81,5.16 -13.48,13.52 l 0,66.48 c 0.67,8.01 5.16,12.5 13.48,13.52 m 123.01,-31.53 79.02,0 c 9.34,-0.66 14.49,-5.82 15.47,-15.46 -0.98,-9.34 -6.13,-14.54 -15.47,-15.51 l -79.02,0 c -9.34,0.97 -14.49,6.17 -15.51,15.51 1.02,9.64 6.17,14.8 15.51,15.46 m -355,197.04 0,-234.03 c 3.67,-38.01 25.86,-58.83 66.52,-62.5 l 396.99,0 c 13.99,0.35 26.33,3.83 37.00005,10.51 l -45.00005,45 74.99995,75 0,45 -28.0099,-28.01 -26.99005,26.99 -422,0 0,669.02999 c 0.67,5 5,8.01 13.01,8.98 l 396.99,0 c 8.32,-0.97 12.66,-3.98 13.01,-8.98 l 0,-242.5 53.98995,53.98 0,188.52 c -3.9899,38.01 -26.3299,58.83 -66.99995,62.5 l -396.99,0 c -40.66,-3.67 -62.85,-24.49 -66.52,-62.5 l 0,-546.98999"
         inkscape:connector-curvature="0" /><path
         id="path24"
         style="fill:#6bc2e6;fill-opacity:1;fill-rule:evenodd;stroke:none"
         d="m 577.13355,726.46161 0,519.48999 327.5,0 -327.5,-519.48999 m 401.52,-58.52 0,93.52 -37.03,36.99 37.03,36.99 0,81.99 -49.53,49.49 49.53,49.53999 0,241.99 c -0.66,5 -5,8.01 -13.01,8.98 l -396.99,0 c -8.01,-0.97 -12.34,-3.98 -13.01,-8.98 l 0,-669.02999 422,0 -38.52,39.03 39.53,39.49"
         inkscape:connector-curvature="0" /><path
         id="path26"
         style="fill:#ffffff;fill-opacity:1;fill-rule:evenodd;stroke:none"
         d="m 577.64355,726.92161 327.5,519.02999 -327.5,0 0,-519.02999"
         inkscape:connector-curvature="0" /><path
         id="path28"
         style="fill:#ffffff;fill-opacity:1;fill-rule:evenodd;stroke:none"
         d="m 734.12355,452.43161 66.52,0 c 8.32,1.02 12.82,5.51 13.48,13.52 l 0,66.48 c -0.98,8.36 -5.47,12.85 -13.48,13.52 l -66.52,0 c -8.32,-0.67 -12.81,-5.16 -13.48,-13.52 l 0,-66.48 c 0.67,-8.36 5.16,-12.85 13.48,-13.52"
         inkscape:connector-curvature="0" /><path
         id="path30"
         style="fill:#ffffff;fill-opacity:1;fill-rule:evenodd;stroke:none"
         d="m 995.14355,901.46161 106.98995,106.98999 -65.51,65.51 -3.98,-4.03 -53.51995,-53.47 -49.49,-49.53999 49.49,-48.98 16.02,-16.48"
         inkscape:connector-curvature="0" /><path
         id="path32"
         style="fill:#ffffff;fill-opacity:1;fill-rule:evenodd;stroke:none"
         d="m 1032.1335,888.96161 -53.47995,-53.52 -37.03,-36.99 37.03,-36.99 28.48005,-28.52 118.0099,118.01 -65.51,65.51 -27.5,-27.5"
         inkscape:connector-curvature="0" /><path
         id="path34"
         style="fill:#ffffff;fill-opacity:1;fill-rule:evenodd;stroke:none"
         d="m 1032.6435,721.92161 -53.51995,-53.47 -40,-40 39.02,-38.52 26.49005,-26.99 153.0099,153.01 -65.51,65.51 -59.49,-59.54"
         inkscape:connector-curvature="0" /><path
         id="path36"
         style="fill:#ffffff;fill-opacity:1;fill-rule:evenodd;stroke:none"
         d="m 598.65355,483.45161 78.99,0 c 9.33,0.97 14.49,6.33 15.5,15.97 -1.01,9.34 -6.17,14.54 -15.5,15.51 l -78.99,0 c -9.34,-0.97 -14.53,-6.17 -15.51,-15.51 0.98,-9.64 6.17,-15 15.51,-15.97"
         inkscape:connector-curvature="0" /><path
         id="path38"
         style="fill:#ffffff;fill-opacity:1;fill-rule:evenodd;stroke:none"
         d="m 857.13355,483.45161 79.02,0 c 9.34,0.97 14.49,6.33 15.47,15.97 -0.98,9.34 -6.13,14.54 -15.47,15.51 l -79.02,0 c -9.34,-0.97 -14.49,-6.17 -15.51,-15.51 1.02,-9.64 6.17,-15 15.51,-15.97"
         inkscape:connector-curvature="0" /><path
         id="path40"
         style="fill:#ffffff;fill-opacity:1;fill-rule:evenodd;stroke:none"
         d="m 543.65355,4.4206144 447.5,0 0,197.4999956 156.48995,327.501 -65.51,65.51 -124.48995,-124.49 45.00005,-45 c -10.67005,-6.68 -23.01005,-10.16 -37.00005,-10.51 l -396.99,0 c -40.35,3.67 -62.5,24.49 -66.52,62.5 l 0,234.03 -50,-33.52 0,186.99 50,72.5 0,106.98999 -38.99,27.04 -129.489,-181.01999 0,-465 209.999,-216.99 0,-204.0309956"
         inkscape:connector-curvature="0" /><g
         transform="scale(10,10)"
         id="g42" /></g></g></svg>